<svg width="18" height="18" viewBox="0 0 18 18" fill="none" xmlns="http://www.w3.org/2000/svg">
<mask id="mask0_6_2285" style="mask-type:alpha" maskUnits="userSpaceOnUse" x="0" y="0" width="18" height="18">
<path fill-rule="evenodd" clip-rule="evenodd" d="M0 9C0 4.02944 4.02944 0 9 0C13.9706 0 18 4.02944 18 9C18 13.9706 13.9706 18 9 18C4.02944 18 0 13.9706 0 9Z" fill="white"/>
</mask>
<g mask="url(#mask0_6_2285)">
<path fill-rule="evenodd" clip-rule="evenodd" d="M0 9C0 4.02944 4.02944 0 9 0C13.9706 0 18 4.02944 18 9C18 13.9706 13.9706 18 9 18C4.02944 18 0 13.9706 0 9Z" fill="#96172E"/>
<path fill-rule="evenodd" clip-rule="evenodd" d="M9.0004 4.19995C7.69679 4.19995 7.53319 4.20565 7.02118 4.22895C6.51018 4.25235 6.16137 4.33325 5.85617 4.45195C5.54047 4.57456 5.27266 4.73856 5.00586 5.00546C4.73886 5.27226 4.57486 5.54006 4.45185 5.85567C4.33285 6.16097 4.25185 6.50988 4.22885 7.02068C4.20595 7.53269 4.19995 7.69639 4.19995 9C4.19995 10.3036 4.20575 10.4667 4.22895 10.9787C4.25245 11.4897 4.33335 11.8385 4.45195 12.1437C4.57466 12.4594 4.73866 12.7272 5.00556 12.994C5.27226 13.261 5.54007 13.4254 5.85557 13.548C6.16097 13.6667 6.50988 13.7477 7.02078 13.7711C7.53279 13.7944 7.69629 13.8 8.9998 13.8C10.3035 13.8 10.4666 13.7944 10.9786 13.7711C11.4896 13.7477 11.8388 13.6667 12.1442 13.548C12.4598 13.4254 12.7272 13.261 12.9939 12.994C13.2609 12.7272 13.4249 12.4594 13.5479 12.1438C13.666 11.8385 13.747 11.4896 13.771 10.9788C13.794 10.4668 13.8 10.3036 13.8 9C13.8 7.69639 13.794 7.53279 13.771 7.02078C13.747 6.50977 13.666 6.16097 13.5479 5.85577C13.4249 5.54007 13.2609 5.27226 12.9939 5.00546C12.7269 4.73846 12.4599 4.57446 12.1439 4.45195C11.8379 4.33325 11.4889 4.25235 10.9779 4.22895C10.4659 4.20565 10.3029 4.19995 8.9989 4.19995H9.0004ZM8.56987 5.06489C8.69767 5.06469 8.84027 5.06489 9.00047 5.06489C10.2821 5.06489 10.434 5.06949 10.9401 5.0925C11.4081 5.1139 11.6621 5.1921 11.8313 5.2578C12.0553 5.3448 12.215 5.4488 12.3829 5.6168C12.5509 5.7848 12.6549 5.9448 12.7421 6.16881C12.8078 6.33781 12.8861 6.59181 12.9074 7.05982C12.9304 7.56582 12.9354 7.71782 12.9354 8.99884C12.9354 10.2798 12.9304 10.4319 12.9074 10.9379C12.886 11.4059 12.8078 11.6599 12.7421 11.8289C12.6551 12.0529 12.5509 12.2124 12.3829 12.3803C12.2149 12.5483 12.0554 12.6523 11.8313 12.7393C11.6623 12.8053 11.4081 12.8833 10.9401 12.9047C10.4341 12.9277 10.2821 12.9327 9.00047 12.9327C7.71876 12.9327 7.56686 12.9277 7.06085 12.9047C6.59285 12.8831 6.33884 12.8049 6.16954 12.7392C5.94554 12.6522 5.78554 12.5482 5.61754 12.3802C5.44953 12.2122 5.34553 12.0526 5.25833 11.8285C5.19263 11.6595 5.11433 11.4055 5.09303 10.9375C5.07003 10.4315 5.06543 10.2794 5.06543 8.99764C5.06543 7.71582 5.07003 7.56462 5.09303 7.05862C5.11443 6.59061 5.19263 6.33661 5.25833 6.16741C5.34533 5.9434 5.44953 5.7834 5.61754 5.6154C5.78554 5.4474 5.94554 5.3434 6.16954 5.2562C6.33874 5.1902 6.59285 5.1122 7.06085 5.0907C7.50365 5.07069 7.67526 5.06469 8.56987 5.06369V5.06489ZM11.5628 5.86196C11.2448 5.86196 10.9868 6.11966 10.9868 6.43777C10.9868 6.75577 11.2448 7.01377 11.5628 7.01377C11.8808 7.01377 12.1388 6.75577 12.1388 6.43777C12.1388 6.11976 11.8808 5.86176 11.5628 5.86176V5.86196ZM9.00043 6.53488C7.63911 6.53488 6.5354 7.6386 6.5354 8.99991C6.5354 10.3612 7.63911 11.4644 9.00043 11.4644C10.3617 11.4644 11.4651 10.3612 11.4651 8.99991C11.4651 7.6386 10.3616 6.53488 9.00033 6.53488H9.00043ZM9.00041 7.39986C9.88402 7.39986 10.6004 8.11617 10.6004 8.99987C10.6004 9.88348 9.88402 10.5999 9.00041 10.5999C8.1167 10.5999 7.40039 9.88348 7.40039 8.99987C7.40039 8.11617 8.1167 7.39986 9.00041 7.39986Z" fill="white"/>
</g>
</svg>
