<svg width="52" height="21" viewBox="0 0 52 21" fill="none" xmlns="http://www.w3.org/2000/svg">
<path d="M25.4289 3.4149C25.3929 3.4779 25.3539 3.5244 25.3119 3.5544C25.2729 3.5814 25.2234 3.5949 25.1634 3.5949C25.1004 3.5949 25.0314 3.5724 24.9564 3.5274C24.8844 3.4794 24.7974 3.4269 24.6954 3.3699C24.5934 3.3129 24.4734 3.2619 24.3354 3.2169C24.2004 3.1689 24.0399 3.1449 23.8539 3.1449C23.6859 3.1449 23.5389 3.1659 23.4129 3.2079C23.2869 3.2469 23.1804 3.3024 23.0934 3.3744C23.0094 3.4464 22.9464 3.5334 22.9044 3.6354C22.8624 3.7344 22.8414 3.8439 22.8414 3.9639C22.8414 4.1169 22.8834 4.2444 22.9674 4.3464C23.0544 4.4484 23.1684 4.5354 23.3094 4.6074C23.4504 4.6794 23.6109 4.7439 23.7909 4.8009C23.9709 4.8579 24.1554 4.9194 24.3444 4.9854C24.5334 5.0484 24.7179 5.1234 24.8979 5.2104C25.0779 5.2944 25.2384 5.4024 25.3794 5.5344C25.5204 5.6634 25.6329 5.8224 25.7169 6.0114C25.8039 6.2004 25.8474 6.4299 25.8474 6.6999C25.8474 6.9939 25.7964 7.2699 25.6944 7.5279C25.5954 7.7829 25.4484 8.0064 25.2534 8.1984C25.0614 8.3874 24.8259 8.5374 24.5469 8.6484C24.2679 8.7564 23.9484 8.8104 23.5884 8.8104C23.3814 8.8104 23.1774 8.7894 22.9764 8.7474C22.7754 8.7084 22.5819 8.6514 22.3959 8.5764C22.2129 8.5014 22.0404 8.4114 21.8784 8.3064C21.7164 8.2014 21.5724 8.0844 21.4464 7.9554L21.8019 7.3749C21.8319 7.3329 21.8709 7.2984 21.9189 7.2714C21.9669 7.2414 22.0179 7.2264 22.0719 7.2264C22.1469 7.2264 22.2279 7.2579 22.3149 7.3209C22.4019 7.3809 22.5054 7.4484 22.6254 7.5234C22.7454 7.5984 22.8849 7.6674 23.0439 7.7304C23.2059 7.7904 23.3994 7.8204 23.6244 7.8204C23.9694 7.8204 24.2364 7.7394 24.4254 7.5774C24.6144 7.4124 24.7089 7.1769 24.7089 6.8709C24.7089 6.6999 24.6654 6.5604 24.5784 6.4524C24.4944 6.3444 24.3819 6.2544 24.2409 6.1824C24.0999 6.1074 23.9394 6.0444 23.7594 5.9934C23.5794 5.9424 23.3964 5.8869 23.2104 5.8269C23.0244 5.7669 22.8414 5.6949 22.6614 5.6109C22.4814 5.5269 22.3209 5.4174 22.1799 5.2824C22.0389 5.1474 21.9249 4.9794 21.8379 4.7784C21.7539 4.5744 21.7119 4.3239 21.7119 4.0269C21.7119 3.7899 21.7584 3.5589 21.8514 3.3339C21.9474 3.1089 22.0854 2.9094 22.2654 2.7354C22.4454 2.5614 22.6674 2.4219 22.9314 2.3169C23.1954 2.2119 23.4984 2.1594 23.8404 2.1594C24.2244 2.1594 24.5784 2.2194 24.9024 2.3394C25.2264 2.4594 25.5024 2.6274 25.7304 2.8434L25.4289 3.4149ZM27.8623 4.1214V8.7384H26.7463V4.1214H27.8623ZM28.0153 2.7759C28.0153 2.8719 27.9958 2.9619 27.9568 3.0459C27.9178 3.1299 27.8653 3.2034 27.7993 3.2664C27.7363 3.3294 27.6613 3.3804 27.5743 3.4194C27.4873 3.4554 27.3943 3.4734 27.2953 3.4734C27.1993 3.4734 27.1078 3.4554 27.0208 3.4194C26.9368 3.3804 26.8633 3.3294 26.8003 3.2664C26.7373 3.2034 26.6863 3.1299 26.6473 3.0459C26.6113 2.9619 26.5933 2.8719 26.5933 2.7759C26.5933 2.6769 26.6113 2.5839 26.6473 2.4969C26.6863 2.4099 26.7373 2.3349 26.8003 2.2719C26.8633 2.2089 26.9368 2.1594 27.0208 2.1234C27.1078 2.0844 27.1993 2.0649 27.2953 2.0649C27.3943 2.0649 27.4873 2.0844 27.5743 2.1234C27.6613 2.1594 27.7363 2.2089 27.7993 2.2719C27.8653 2.3349 27.9178 2.4099 27.9568 2.4969C27.9958 2.5839 28.0153 2.6769 28.0153 2.7759ZM30.5344 8.8104C30.1324 8.8104 29.8234 8.6979 29.6074 8.4729C29.3944 8.2449 29.2879 7.9314 29.2879 7.5324V4.9539H28.8154C28.7554 4.9539 28.7044 4.9344 28.6624 4.8954C28.6204 4.8564 28.5994 4.7979 28.5994 4.7199V4.2789L29.3419 4.1574L29.5759 2.8974C29.5909 2.8374 29.6194 2.7909 29.6614 2.7579C29.7034 2.7249 29.7574 2.7084 29.8234 2.7084H30.3994V4.1619H31.6324V4.9539H30.3994V7.4559C30.3994 7.5999 30.4339 7.7124 30.5029 7.7934C30.5749 7.8744 30.6724 7.9149 30.7954 7.9149C30.8644 7.9149 30.9214 7.9074 30.9664 7.8924C31.0144 7.8744 31.0549 7.8564 31.0879 7.8384C31.1239 7.8204 31.1554 7.8039 31.1824 7.7889C31.2094 7.7709 31.2364 7.7619 31.2634 7.7619C31.2964 7.7619 31.3234 7.7709 31.3444 7.7889C31.3654 7.8039 31.3879 7.8279 31.4119 7.8609L31.7449 8.4009C31.5829 8.5359 31.3969 8.6379 31.1869 8.7069C30.9769 8.7759 30.7594 8.8104 30.5344 8.8104ZM33.496 4.1214V8.7384H32.38V4.1214H33.496ZM33.649 2.7759C33.649 2.8719 33.6295 2.9619 33.5905 3.0459C33.5515 3.1299 33.499 3.2034 33.433 3.2664C33.37 3.3294 33.295 3.3804 33.208 3.4194C33.121 3.4554 33.028 3.4734 32.929 3.4734C32.833 3.4734 32.7415 3.4554 32.6545 3.4194C32.5705 3.3804 32.497 3.3294 32.434 3.2664C32.371 3.2034 32.32 3.1299 32.281 3.0459C32.245 2.9619 32.227 2.8719 32.227 2.7759C32.227 2.6769 32.245 2.5839 32.281 2.4969C32.32 2.4099 32.371 2.3349 32.434 2.2719C32.497 2.2089 32.5705 2.1594 32.6545 2.1234C32.7415 2.0844 32.833 2.0649 32.929 2.0649C33.028 2.0649 33.121 2.0844 33.208 2.1234C33.295 2.1594 33.37 2.2089 33.433 2.2719C33.499 2.3349 33.5515 2.4099 33.5905 2.4969C33.6295 2.5839 33.649 2.6769 33.649 2.7759ZM36.6722 4.0494C37.0142 4.0494 37.3247 4.1049 37.6037 4.2159C37.8857 4.3269 38.1257 4.4844 38.3237 4.6884C38.5247 4.8924 38.6792 5.1414 38.7872 5.4354C38.8952 5.7294 38.9492 6.0579 38.9492 6.4209C38.9492 6.7869 38.8952 7.1169 38.7872 7.4109C38.6792 7.7049 38.5247 7.9554 38.3237 8.1624C38.1257 8.3694 37.8857 8.5284 37.6037 8.6394C37.3247 8.7504 37.0142 8.8059 36.6722 8.8059C36.3272 8.8059 36.0137 8.7504 35.7317 8.6394C35.4497 8.5284 35.2082 8.3694 35.0072 8.1624C34.8092 7.9554 34.6547 7.7049 34.5437 7.4109C34.4357 7.1169 34.3817 6.7869 34.3817 6.4209C34.3817 6.0579 34.4357 5.7294 34.5437 5.4354C34.6547 5.1414 34.8092 4.8924 35.0072 4.6884C35.2082 4.4844 35.4497 4.3269 35.7317 4.2159C36.0137 4.1049 36.3272 4.0494 36.6722 4.0494ZM36.6722 7.9509C37.0562 7.9509 37.3397 7.8219 37.5227 7.5639C37.7087 7.3059 37.8017 6.9279 37.8017 6.4299C37.8017 5.9319 37.7087 5.5524 37.5227 5.2914C37.3397 5.0304 37.0562 4.8999 36.6722 4.8999C36.2822 4.8999 35.9927 5.0319 35.8037 5.2959C35.6177 5.5569 35.5247 5.9349 35.5247 6.4299C35.5247 6.9249 35.6177 7.3029 35.8037 7.5639C35.9927 7.8219 36.2822 7.9509 36.6722 7.9509ZM24.6054 15.0214C24.5754 15.0694 24.5439 15.1039 24.5109 15.1249C24.4779 15.1429 24.4359 15.1519 24.3849 15.1519C24.3309 15.1519 24.2724 15.1369 24.2094 15.1069C24.1494 15.0769 24.0789 15.0439 23.9979 15.0079C23.9169 14.9689 23.8239 14.9344 23.7189 14.9044C23.6169 14.8744 23.4954 14.8594 23.3544 14.8594C23.1354 14.8594 22.9629 14.9059 22.8369 14.9989C22.7139 15.0919 22.6524 15.2134 22.6524 15.3634C22.6524 15.4624 22.6839 15.5464 22.7469 15.6154C22.8129 15.6814 22.8984 15.7399 23.0034 15.7909C23.1114 15.8419 23.2329 15.8884 23.3679 15.9304C23.5029 15.9694 23.6394 16.0129 23.7774 16.0609C23.9184 16.1089 24.0564 16.1644 24.1914 16.2274C24.3264 16.2874 24.4464 16.3654 24.5514 16.4614C24.6594 16.5544 24.7449 16.6669 24.8079 16.7989C24.8739 16.9309 24.9069 17.0899 24.9069 17.2759C24.9069 17.4979 24.8664 17.7034 24.7854 17.8924C24.7074 18.0784 24.5904 18.2404 24.4344 18.3784C24.2784 18.5134 24.0849 18.6199 23.8539 18.6979C23.6259 18.7729 23.3619 18.8104 23.0619 18.8104C22.9029 18.8104 22.7469 18.7954 22.5939 18.7654C22.4439 18.7384 22.2984 18.6994 22.1574 18.6484C22.0194 18.5974 21.8904 18.5374 21.7704 18.4684C21.6534 18.3994 21.5499 18.3244 21.4599 18.2434L21.7164 17.8204C21.7494 17.7694 21.7884 17.7304 21.8334 17.7034C21.8784 17.6764 21.9354 17.6629 22.0044 17.6629C22.0734 17.6629 22.1379 17.6824 22.1979 17.7214C22.2609 17.7604 22.3329 17.8024 22.4139 17.8474C22.4949 17.8924 22.5894 17.9344 22.6974 17.9734C22.8084 18.0124 22.9479 18.0319 23.1159 18.0319C23.2479 18.0319 23.3604 18.0169 23.4534 17.9869C23.5494 17.9539 23.6274 17.9119 23.6874 17.8609C23.7504 17.8099 23.7954 17.7514 23.8224 17.6854C23.8524 17.6164 23.8674 17.5459 23.8674 17.4739C23.8674 17.3659 23.8344 17.2774 23.7684 17.2084C23.7054 17.1394 23.6199 17.0794 23.5119 17.0284C23.4069 16.9774 23.2854 16.9324 23.1474 16.8934C23.0124 16.8514 22.8729 16.8064 22.7289 16.7584C22.5879 16.7104 22.4484 16.6549 22.3104 16.5919C22.1754 16.5259 22.0539 16.4434 21.9459 16.3444C21.8409 16.2454 21.7554 16.1239 21.6894 15.9799C21.6264 15.8359 21.5949 15.6619 21.5949 15.4579C21.5949 15.2689 21.6324 15.0889 21.7074 14.9179C21.7824 14.7469 21.8919 14.5984 22.0359 14.4724C22.1829 14.3434 22.3644 14.2414 22.5804 14.1664C22.7994 14.0884 23.0514 14.0494 23.3364 14.0494C23.6544 14.0494 23.9439 14.1019 24.2049 14.2069C24.4659 14.3119 24.6834 14.4499 24.8574 14.6209L24.6054 15.0214ZM28.718 15.8989C28.718 15.7549 28.697 15.6199 28.655 15.4939C28.616 15.3649 28.556 15.2524 28.475 15.1564C28.394 15.0604 28.2905 14.9854 28.1645 14.9314C28.0415 14.8744 27.8975 14.8459 27.7325 14.8459C27.4115 14.8459 27.158 14.9374 26.972 15.1204C26.789 15.3034 26.672 15.5629 26.621 15.8989H28.718ZM26.5985 16.5694C26.6165 16.8064 26.6585 17.0119 26.7245 17.1859C26.7905 17.3569 26.8775 17.4994 26.9855 17.6134C27.0935 17.7244 27.221 17.8084 27.368 17.8654C27.518 17.9194 27.683 17.9464 27.863 17.9464C28.043 17.9464 28.1975 17.9254 28.3265 17.8834C28.4585 17.8414 28.5725 17.7949 28.6685 17.7439C28.7675 17.6929 28.853 17.6464 28.925 17.6044C29 17.5624 29.072 17.5414 29.141 17.5414C29.234 17.5414 29.303 17.5759 29.348 17.6449L29.6675 18.0499C29.5445 18.1939 29.4065 18.3154 29.2535 18.4144C29.1005 18.5104 28.94 18.5884 28.772 18.6484C28.607 18.7054 28.4375 18.7459 28.2635 18.7699C28.0925 18.7939 27.926 18.8059 27.764 18.8059C27.443 18.8059 27.1445 18.7534 26.8685 18.6484C26.5925 18.5404 26.3525 18.3829 26.1485 18.1759C25.9445 17.9659 25.784 17.7079 25.667 17.4019C25.55 17.0929 25.4915 16.7359 25.4915 16.3309C25.4915 16.0159 25.5425 15.7204 25.6445 15.4444C25.7465 15.1654 25.892 14.9239 26.081 14.7199C26.273 14.5129 26.5055 14.3494 26.7785 14.2294C27.0545 14.1094 27.365 14.0494 27.71 14.0494C28.001 14.0494 28.2695 14.0959 28.5155 14.1889C28.7615 14.2819 28.973 14.4184 29.15 14.5984C29.327 14.7754 29.465 14.9944 29.564 15.2554C29.666 15.5134 29.717 15.8089 29.717 16.1419C29.717 16.3099 29.699 16.4239 29.663 16.4839C29.627 16.5409 29.558 16.5694 29.456 16.5694H26.5985ZM32.2386 16.3174C32.3766 16.3174 32.4966 16.2994 32.5986 16.2634C32.7006 16.2244 32.7846 16.1719 32.8506 16.1059C32.9196 16.0399 32.9706 15.9604 33.0036 15.8674C33.0396 15.7744 33.0576 15.6724 33.0576 15.5614C33.0576 15.3334 32.9886 15.1534 32.8506 15.0214C32.7156 14.8864 32.5116 14.8189 32.2386 14.8189C31.9656 14.8189 31.7601 14.8864 31.6221 15.0214C31.4871 15.1534 31.4196 15.3334 31.4196 15.5614C31.4196 15.6694 31.4361 15.7699 31.4691 15.8629C31.5051 15.9559 31.5561 16.0369 31.6221 16.1059C31.6911 16.1719 31.7766 16.2244 31.8786 16.2634C31.9836 16.2994 32.1036 16.3174 32.2386 16.3174ZM33.4941 18.9454C33.4941 18.8554 33.4671 18.7819 33.4131 18.7249C33.3591 18.6679 33.2856 18.6244 33.1926 18.5944C33.0996 18.5614 32.9901 18.5374 32.8641 18.5224C32.7411 18.5074 32.6091 18.4969 32.4681 18.4909C32.3301 18.4819 32.1861 18.4744 32.0361 18.4684C31.8891 18.4624 31.7451 18.4504 31.6041 18.4324C31.4811 18.5014 31.3806 18.5824 31.3026 18.6754C31.2276 18.7684 31.1901 18.8764 31.1901 18.9994C31.1901 19.0804 31.2096 19.1554 31.2486 19.2244C31.2906 19.2964 31.3551 19.3579 31.4421 19.4089C31.5321 19.4599 31.6476 19.4989 31.7886 19.5259C31.9296 19.5559 32.1021 19.5709 32.3061 19.5709C32.5131 19.5709 32.6916 19.5544 32.8416 19.5214C32.9916 19.4914 33.1146 19.4479 33.2106 19.3909C33.3096 19.3369 33.3816 19.2709 33.4266 19.1929C33.4716 19.1179 33.4941 19.0354 33.4941 18.9454ZM34.6011 14.2789V14.6929C34.6011 14.8249 34.5216 14.9059 34.3626 14.9359L33.9486 15.0124C34.0116 15.1714 34.0431 15.3454 34.0431 15.5344C34.0431 15.7624 33.9966 15.9694 33.9036 16.1554C33.8136 16.3384 33.6876 16.4944 33.5256 16.6234C33.3636 16.7524 33.1716 16.8529 32.9496 16.9249C32.7306 16.9939 32.4936 17.0284 32.2386 17.0284C32.1486 17.0284 32.0616 17.0239 31.9776 17.0149C31.8936 17.0059 31.8111 16.9939 31.7301 16.9789C31.5861 17.0659 31.5141 17.1634 31.5141 17.2714C31.5141 17.3644 31.5561 17.4334 31.6401 17.4784C31.7271 17.5204 31.8411 17.5504 31.9821 17.5684C32.1231 17.5864 32.2836 17.5984 32.4636 17.6044C32.6436 17.6074 32.8281 17.6164 33.0171 17.6314C33.2061 17.6464 33.3906 17.6734 33.5706 17.7124C33.7506 17.7484 33.9111 17.8069 34.0521 17.8879C34.1931 17.9689 34.3056 18.0799 34.3896 18.2209C34.4766 18.3589 34.5201 18.5374 34.5201 18.7564C34.5201 18.9604 34.4691 19.1584 34.3671 19.3504C34.2681 19.5424 34.1226 19.7134 33.9306 19.8634C33.7416 20.0134 33.5076 20.1334 33.2286 20.2234C32.9526 20.3164 32.6376 20.3629 32.2836 20.3629C31.9356 20.3629 31.6326 20.3284 31.3746 20.2594C31.1166 20.1934 30.9021 20.1034 30.7311 19.9894C30.5601 19.8784 30.4326 19.7494 30.3486 19.6024C30.2646 19.4554 30.2226 19.3024 30.2226 19.1434C30.2226 18.9274 30.2871 18.7474 30.4161 18.6034C30.5481 18.4564 30.7281 18.3394 30.9561 18.2524C30.8331 18.1894 30.7356 18.1054 30.6636 18.0004C30.5916 17.8954 30.5556 17.7574 30.5556 17.5864C30.5556 17.5174 30.5676 17.4469 30.5916 17.3749C30.6186 17.2999 30.6561 17.2264 30.7041 17.1544C30.7551 17.0824 30.8181 17.0149 30.8931 16.9519C30.9681 16.8859 31.0566 16.8274 31.1586 16.7764C30.9246 16.6504 30.7401 16.4824 30.6051 16.2724C30.4731 16.0624 30.4071 15.8164 30.4071 15.5344C30.4071 15.3064 30.4521 15.1009 30.5421 14.9179C30.6351 14.7319 30.7626 14.5744 30.9246 14.4454C31.0896 14.3134 31.2831 14.2129 31.5051 14.1439C31.7301 14.0749 31.9746 14.0404 32.2386 14.0404C32.4366 14.0404 32.6226 14.0614 32.7966 14.1034C32.9706 14.1424 33.1296 14.2009 33.2736 14.2789H34.6011ZM39.284 14.1214V18.7384H38.6045C38.4575 18.7384 38.3645 18.6709 38.3255 18.5359L38.249 18.1669C38.06 18.3589 37.8515 18.5149 37.6235 18.6349C37.3955 18.7519 37.127 18.8104 36.818 18.8104C36.566 18.8104 36.3425 18.7684 36.1475 18.6844C35.9555 18.5974 35.7935 18.4759 35.6615 18.3199C35.5295 18.1639 35.429 17.9794 35.36 17.7664C35.294 17.5504 35.261 17.3134 35.261 17.0554V14.1214H36.3725V17.0554C36.3725 17.3374 36.437 17.5564 36.566 17.7124C36.698 17.8654 36.8945 17.9419 37.1555 17.9419C37.3475 17.9419 37.5275 17.8999 37.6955 17.8159C37.8635 17.7289 38.0225 17.6104 38.1725 17.4604V14.1214H39.284ZM41.4345 14.9224C41.5785 14.6464 41.7495 14.4304 41.9475 14.2744C42.1455 14.1154 42.3795 14.0359 42.6495 14.0359C42.8625 14.0359 43.0335 14.0824 43.1625 14.1754L43.0905 15.0079C43.0755 15.0619 43.053 15.1009 43.023 15.1249C42.996 15.1459 42.9585 15.1564 42.9105 15.1564C42.8655 15.1564 42.798 15.1489 42.708 15.1339C42.621 15.1189 42.5355 15.1114 42.4515 15.1114C42.3285 15.1114 42.219 15.1294 42.123 15.1654C42.027 15.2014 41.94 15.2539 41.862 15.3229C41.787 15.3889 41.7195 15.4699 41.6595 15.5659C41.6025 15.6619 41.5485 15.7714 41.4975 15.8944V18.7384H40.386V14.1214H41.0385C41.1525 14.1214 41.232 14.1424 41.277 14.1844C41.322 14.2234 41.352 14.2954 41.367 14.4004L41.4345 14.9224ZM45.6546 14.0494C45.9966 14.0494 46.3071 14.1049 46.5861 14.2159C46.8681 14.3269 47.1081 14.4844 47.3061 14.6884C47.5071 14.8924 47.6616 15.1414 47.7696 15.4354C47.8776 15.7294 47.9316 16.0579 47.9316 16.4209C47.9316 16.7869 47.8776 17.1169 47.7696 17.4109C47.6616 17.7049 47.5071 17.9554 47.3061 18.1624C47.1081 18.3694 46.8681 18.5284 46.5861 18.6394C46.3071 18.7504 45.9966 18.8059 45.6546 18.8059C45.3096 18.8059 44.9961 18.7504 44.7141 18.6394C44.4321 18.5284 44.1906 18.3694 43.9896 18.1624C43.7916 17.9554 43.6371 17.7049 43.5261 17.4109C43.4181 17.1169 43.3641 16.7869 43.3641 16.4209C43.3641 16.0579 43.4181 15.7294 43.5261 15.4354C43.6371 15.1414 43.7916 14.8924 43.9896 14.6884C44.1906 14.4844 44.4321 14.3269 44.7141 14.2159C44.9961 14.1049 45.3096 14.0494 45.6546 14.0494ZM45.6546 17.9509C46.0386 17.9509 46.3221 17.8219 46.5051 17.5639C46.6911 17.3059 46.7841 16.9279 46.7841 16.4299C46.7841 15.9319 46.6911 15.5524 46.5051 15.2914C46.3221 15.0304 46.0386 14.8999 45.6546 14.8999C45.2646 14.8999 44.9751 15.0319 44.7861 15.2959C44.6001 15.5569 44.5071 15.9349 44.5071 16.4299C44.5071 16.9249 44.6001 17.3029 44.7861 17.5639C44.9751 17.8219 45.2646 17.9509 45.6546 17.9509Z" fill="#9B9B9B"/>
<path d="M11.2301 6.5568H10.7621V5.62097C10.7621 4.32951 9.714 3.28137 8.42255 3.28137C7.13109 3.28137 6.08296 4.32951 6.08296 5.62097V6.5568H5.61504C5.10033 6.5568 4.6792 6.97793 4.6792 7.49264V12.1718C4.6792 12.6865 5.10033 13.1077 5.61504 13.1077H11.2301C11.7448 13.1077 12.1659 12.6865 12.1659 12.1718V7.49264C12.1659 6.97793 11.7448 6.5568 11.2301 6.5568ZM8.42255 10.7681C7.90784 10.7681 7.48671 10.3469 7.48671 9.83223C7.48671 9.31752 7.90784 8.8964 8.42255 8.8964C8.93726 8.8964 9.35839 9.31752 9.35839 9.83223C9.35839 10.3469 8.93726 10.7681 8.42255 10.7681ZM9.8731 6.5568H6.972V5.62097C6.972 4.82082 7.62241 4.17042 8.42255 4.17042C9.22269 4.17042 9.8731 4.82082 9.8731 5.62097V6.5568Z" fill="#9B9B9B"/>
<path fill-rule="evenodd" clip-rule="evenodd" d="M8.42253 15.8602C12.5269 15.8602 15.8542 12.5329 15.8542 8.42852C15.8542 4.32413 12.5269 0.996868 8.42253 0.996868C4.31815 0.996868 0.990886 4.32413 0.990886 8.42852C0.990886 12.5329 4.31815 15.8602 8.42253 15.8602ZM8.42253 16.8511C13.0742 16.8511 16.8451 13.0802 16.8451 8.42852C16.8451 3.77688 13.0742 0.00598145 8.42253 0.00598145C3.7709 0.00598145 0 3.77688 0 8.42852C0 13.0802 3.7709 16.8511 8.42253 16.8511Z" fill="#9B9B9B"/>
</svg>
