<svg width="18" height="18" viewBox="0 0 18 18" fill="none" xmlns="http://www.w3.org/2000/svg">
<path fill-rule="evenodd" clip-rule="evenodd" d="M0 9C0 4.02944 4.02944 0 9 0C13.9706 0 18 4.02944 18 9C18 13.9706 13.9706 18 9 18C4.02944 18 0 13.9706 0 9Z" fill="#96172E"/>
<path fill-rule="evenodd" clip-rule="evenodd" d="M13.5993 6.77741C13.4889 6.35328 13.1636 6.0193 12.7506 5.90595C12.002 5.69995 8.99995 5.69995 8.99995 5.69995C8.99995 5.69995 5.99793 5.69995 5.2493 5.90595C4.83622 6.0193 4.51091 6.35328 4.40051 6.77741C4.19995 7.54609 4.19995 9.14995 4.19995 9.14995C4.19995 9.14995 4.19995 10.7538 4.40051 11.5225C4.51091 11.9466 4.83622 12.2806 5.2493 12.394C5.99793 12.6 8.99995 12.5999 8.99995 12.5999C8.99995 12.5999 12.002 12.6 12.7506 12.394C13.1636 12.2806 13.4889 11.9466 13.5993 11.5225C13.8 10.7538 13.8 9.14995 13.8 9.14995C13.8 9.14995 13.8 7.54609 13.5993 6.77741Z" fill="white"/>
<path fill-rule="evenodd" clip-rule="evenodd" d="M8.1001 10.7999V7.79993L10.5001 9.29998L8.1001 10.7999Z" fill="#96172E"/>
</svg>
